<?xml version="1.0" encoding="utf-8"?>
<!-- Generator: Adobe Illustrator 27.9.0, SVG Export Plug-In . SVG Version: 6.00 Build 0)  -->
<svg version="1.1" xmlns="http://www.w3.org/2000/svg" xmlns:xlink="http://www.w3.org/1999/xlink" x="0px" y="0px"
	 viewBox="0 0 595.28 841.89" style="enable-background:new 0 0 595.28 841.89;" xml:space="preserve">
<style type="text/css">
	.st0{fill:none;stroke:#243E90;stroke-width:10;stroke-miterlimit:10;}
	.st1{fill:none;stroke:#2E3192;stroke-width:13;stroke-miterlimit:10;}
	.st2{fill:none;stroke:#243E90;stroke-width:13;stroke-miterlimit:10;}
</style>
<g id="Layer_2">
	<path class="st0" d="M233.03,498.99c1.47-3.39,1.95-6.92,1.03-10.54c-1.36-5.34-3.59-10.26-7.26-14.46
		c-1.43-1.64-2.83-3.31-4.15-5.04c-1.26-1.66-2.1-3.55-2.55-5.61c-1.31-6.02,0.24-11.22,4.48-15.62c2.34-2.43,4.77-4.78,7.21-7.11
		c2.92-2.78,5.82-5.57,8.11-8.92c2.02-2.95,2.89-6.17,2.48-9.74c-0.74-6.41-3.31-11.91-8.07-16.32c-2.47-2.3-4.98-4.56-7.46-6.85
		c-2.46-2.27-4.48-4.89-6.11-7.82c-2.69-4.84-3-9.79-0.83-14.91c1.36-3.22,3.52-5.85,5.91-8.34c2.56-2.67,5.09-5.38,7.51-8.18
		c1.2-1.39,2.15-3,3.12-4.57c0.82-1.33,1.12-2.84,1.07-4.39c-0.13-4.29-1.63-7.98-5.02-10.73c-3.04-2.47-6.16-4.84-9.2-7.32
		c-1.34-1.1-2.7-2.23-3.81-3.55c-2.53-2.98-3.92-6.4-3.31-10.4c0.47-3.15,1.78-5.96,3.85-8.35c1.89-2.17,3.92-4.23,6-6.22
		c3.32-3.16,6.53-6.43,9.03-10.29c2.69-4.16,2.28-8.97-0.94-12.7c-2.26-2.61-4.9-4.79-7.74-6.74c-1.12-0.77-2.27-1.51-3.3-2.4
		c-4.19-3.64-6.38-8.18-6-13.83c0.3-4.56,1.83-8.65,4.93-12c2.25-2.43,4.77-4.6,7.16-6.91c0.52-0.5,0.97-1.07,1.7-1.87
		c-1.32-0.1-2.23-0.21-3.14-0.24c-7.41-0.18-14.79,0.21-22.15,1.13c-1.26,0.16-2.3,0.56-3.22,1.38c-1.79,1.59-3.63,3.13-5.37,4.77
		c-2.22,2.1-4.3,4.35-5.72,7.09c-2.54,4.89-3.58,12.02,1.28,17.61c1.23,1.42,2.74,2.65,4.28,3.74c2.94,2.08,5.76,4.29,8.27,6.88
		c2.82,2.92,4.12,6.33,3.74,10.39c-0.25,2.72-1.47,4.99-3.09,7.08c-2.6,3.37-5.47,6.5-8.64,9.34c-1.05,0.95-2.08,1.92-3.06,2.94
		c-1.74,1.81-3.34,3.73-4.45,6.01c-1.99,4.1-1.95,8.06,0.72,11.89c1.14,1.63,2.54,2.97,4.09,4.18c3.08,2.42,6.15,4.86,9.23,7.28
		c3.58,2.82,5.46,6.55,5.96,11.03c0.28,2.45-0.08,4.8-1.35,6.93c-0.94,1.58-1.93,3.18-3.13,4.57c-2.45,2.84-5.01,5.6-7.61,8.31
		c-2.24,2.34-4.29,4.76-5.58,7.78c-1.96,4.58-1.71,9,0.72,13.33c1.45,2.58,3.18,4.95,5.35,6.97c2.35,2.19,4.7,4.39,7.1,6.51
		c4.82,4.27,7.79,9.55,9.07,15.86c1.06,5.22,0.26,10-3.08,14.18c-1.9,2.37-3.97,4.62-6.09,6.8c-2.93,3-6.05,5.81-8.96,8.82
		c-5.83,6.06-5.26,14.16-1.01,19.51c0.78,0.98,1.55,1.97,2.41,2.88c3.8,3.98,6.27,8.71,8.01,13.89c1.73,5.15,1.54,10.17-0.8,15.08"
		/>
	<path class="st0" d="M239.24,236.8c-10.81,1.36-22.11,10.42-23.53,21.7c-1.51,12.02,12.91,15.66,18.29,24.39
		c6.51,10.55-3.51,18.39-11.15,24.45c-3.34,2.65-7.67,7.32-7.83,11.82c-0.18,5.05,3.56,9.8,7.03,13.07
		c6.9,6.5,20.35,12.82,13.63,24.54c-5.75,10.03-18.16,14.41-18.06,27.63c0.08,11.25,14.14,17.41,19.94,25.64
		c3.24,4.6,5.48,10.41,4.32,16.09c-1.13,5.53-5.27,10.23-9.14,14.11c-3.8,3.81-8.34,7.3-11.41,11.77
		c-3.45,5.02-2.85,9.64-0.12,14.72c4.55,8.5,12.19,16.68,12.15,26.87c-0.01,2.61-0.57,5.18-1.55,7.6"/>
	<path class="st0" d="M260.18,498.99c4.73-10.85-3.02-20.7-9.38-28.74c-3.09-3.91-4.62-8.56-3.78-13.57
		c0.86-5.1,4.26-8.57,7.79-12.06c7.48-7.4,16.84-14.13,14.17-25.87c-2.47-10.85-11.72-15.27-18.17-23.39
		c-7.63-9.61-5.65-19.36,2.38-27.86c6.58-6.96,16.48-16.06,8.32-25.8c-6-7.17-19.38-11.18-18.28-22.54
		c1.05-10.82,13.4-16.61,18.78-25.16c6.97-11.06-6.37-16.72-12.77-23.01c-6.93-6.8-6.4-17.86-0.1-24.93
		c1.79-2.01,3.84-3.79,5.81-5.62"/>
</g>
<g id="Layer_3">
	<circle class="st1" cx="226.09" cy="369.13" r="133.24"/>
</g>
<g id="Layer_5">
	<line class="st2" x1="96.19" y1="367.47" x2="197.53" y2="367.47"/>
	<line class="st2" x1="255.5" y1="367.47" x2="356.84" y2="367.47"/>
	<line class="st2" x1="266.33" y1="412.15" x2="351.62" y2="412.15"/>
	<line class="st2" x1="100.37" y1="412.15" x2="207.66" y2="412.15"/>
	<line class="st2" x1="123.72" y1="455.82" x2="191.25" y2="455.82"/>
	<line class="st2" x1="250.43" y1="455.08" x2="328.43" y2="454.47"/>
</g>
<g id="Layer_6">
	<line class="st2" x1="123.72" y1="282.62" x2="123.72" y2="364.6"/>
	<line class="st2" x1="157.82" y1="257.31" x2="157.82" y2="363.58"/>
	<line class="st2" x1="326.02" y1="280.51" x2="326.02" y2="362.49"/>
	<line class="st2" x1="291.93" y1="256.22" x2="291.93" y2="362.49"/>
</g>
</svg>
